<svg width="50" height="50" viewBox="0 0 50 50" xmlns="http://www.w3.org/2000/svg">
<path d="M20.079 16.0027C20.8398 16.0027 21.5244 16.0739 22.1522 16.2191C22.776 16.363 23.3082 16.6003 23.7577 16.9285C24.2007 17.2566 24.5469 17.6923 24.7962 18.2397C25.0377 18.7801 25.1579 19.456 25.1579 20.2547C25.1579 21.1205 24.977 21.8438 24.6141 22.4205C24.2485 22.9986 23.7099 23.472 22.9917 23.8379C23.9695 24.1437 24.6942 24.6785 25.1747 25.4381C25.6577 26.2048 25.8941 27.1222 25.8941 28.1974C25.8941 29.0702 25.7404 29.82 25.4317 30.4498C25.1342 31.0702 24.7026 31.6038 24.1736 32.0054C23.6257 32.4179 23.0136 32.7206 22.3666 32.8991C21.6882 33.0916 20.9896 33.1883 20.2883 33.1867H12.5835V16.0027H20.079ZM19.6257 22.9456C20.2457 22.9456 20.7597 22.7864 21.1653 22.4638C21.5683 22.1454 21.7634 21.6204 21.7634 20.9012C21.7634 20.5019 21.6975 20.1723 21.5683 19.914C21.4425 19.6655 21.2562 19.4588 21.0297 19.3163C20.7926 19.1643 20.5309 19.0624 20.2586 19.0161C19.9617 18.9563 19.6602 18.9277 19.3583 18.9309H16.0839V22.9456H19.6257ZM19.8207 30.2613C20.1656 30.2613 20.4937 30.2292 20.8024 30.1538C21.1137 30.0812 21.3901 29.9639 21.6252 29.7893C21.8602 29.6217 22.054 29.3941 22.1935 29.1037C22.3343 28.816 22.4027 28.4404 22.4027 27.9894C22.4027 27.104 22.1715 26.4743 21.7143 26.093C21.2557 25.716 20.6409 25.5289 19.8879 25.5289H16.0839V30.2627H19.8207V30.2613ZM30.8838 30.204C31.3579 30.7039 32.0412 30.9553 32.9298 30.9553C33.5666 30.9553 34.1169 30.7808 34.5806 30.4344C35.0378 30.0867 35.3168 29.7153 35.424 29.3313H38.2076C37.7607 30.8282 37.0825 31.8979 36.1551 32.5416C35.2393 33.1881 34.1246 33.5093 32.8226 33.5093C31.9159 33.5093 31.0995 33.3515 30.3685 33.0387C29.6667 32.7433 29.0326 32.2869 28.5097 31.701C27.9955 31.1014 27.598 30.3962 27.3408 29.6273C27.058 28.7771 26.9181 27.879 26.9275 26.9756C26.9275 26.0456 27.0708 25.1756 27.3524 24.3727C27.6197 23.5965 28.0302 22.8872 28.5588 22.2879C29.082 21.7014 29.702 21.2392 30.424 20.8998C31.1833 20.5546 32.0003 20.3825 32.8239 20.3944C33.7978 20.3944 34.649 20.5982 35.3801 21.0088C36.0891 21.4007 36.7038 21.9658 37.1755 22.6593C37.6444 23.3477 37.979 24.1367 38.1869 25.0206C38.3949 25.9031 38.4672 26.8248 38.4078 27.7897H30.1011C30.1024 28.7727 30.4085 29.7041 30.8838 30.204ZM34.516 23.6675C34.1401 23.2179 33.5046 22.9749 32.727 22.9749C32.222 22.9749 31.8048 23.0657 31.469 23.2528C31.1619 23.4204 30.8894 23.6537 30.6681 23.9384C30.4737 24.1969 30.3296 24.4952 30.2445 24.8153C30.17 25.0823 30.1219 25.3571 30.1011 25.635H35.2445C35.1696 24.7637 34.8932 24.1199 34.516 23.6675ZM29.4552 17.1561H35.8994V18.8527H29.4552V17.1561Z" fill="black"/>
</svg>
