<svg width="50" height="50" viewBox="0 0 50 50" fill="none" xmlns="http://www.w3.org/2000/svg">
<path fill-rule="evenodd" clip-rule="evenodd" d="M25.5 10C16.9427 10 10 16.9427 10 25.5C10 34.0573 16.9427 41 25.5 41C34.0405 41 41 34.0573 41 25.5C41 16.9427 34.0405 10 25.5 10ZM35.7377 17.1442C37.6462 19.4684 38.7022 22.3753 38.7305 25.3825C38.294 25.2985 33.923 24.4072 29.5184 24.9627C29.4163 24.7431 29.3324 24.508 29.2316 24.2729C28.9577 23.6263 28.6665 22.9871 28.3585 22.3561C33.2332 20.3721 35.4523 17.5149 35.7377 17.1442ZM25.5 12.2875C28.8622 12.2875 31.939 13.5469 34.2756 15.6149C34.0405 15.9507 32.0397 18.6245 27.3329 20.3889C25.1629 16.4054 22.7604 13.1426 22.3897 12.6389C23.4092 12.4008 24.453 12.2825 25.5 12.2862V12.2875ZM19.8683 13.5301C20.221 14.0016 22.5744 17.2798 24.7767 21.1794C18.5896 22.8275 13.1258 22.794 12.5381 22.794C13.3958 18.6916 16.1703 15.279 19.8683 13.5301ZM12.2527 25.5168V25.1138C12.8249 25.1306 19.2457 25.2145 25.8539 23.2305C26.2401 23.9707 26.5927 24.7263 26.9286 25.4832C26.7607 25.5336 26.576 25.584 26.408 25.6343C19.5829 27.8366 15.9507 33.8545 15.6485 34.3595C13.4622 31.9332 12.2524 28.7828 12.2527 25.5168ZM25.5 38.7473C22.44 38.7473 19.6165 37.705 17.3806 35.9573C17.6157 35.4691 20.3049 30.2908 27.7695 27.6855C27.803 27.6687 27.8211 27.6687 27.8534 27.6519C29.7199 32.4763 30.4755 36.5282 30.6783 37.6882C29.0805 38.3779 27.3329 38.7473 25.5 38.7473ZM32.8806 36.4779C32.7463 35.6706 32.0397 31.8046 30.3076 27.0461C34.4603 26.3912 38.0912 27.4672 38.5458 27.6183C37.9736 31.2996 35.8553 34.4771 32.8806 36.4779Z" fill="black"/>
</svg>
