<svg width="50" height="50" viewBox="0 0 50 50" fill="none" xmlns="http://www.w3.org/2000/svg">
<path d="M30.6668 39.4167V34.4179C30.7153 33.802 30.6321 33.1828 30.4227 32.6016C30.2134 32.0203 29.8827 31.4903 29.4527 31.0467C33.5085 30.5946 37.771 29.0575 37.771 22.005C37.7707 20.2016 37.077 18.4674 35.8335 17.1612C36.4223 15.5835 36.3807 13.8395 35.7172 12.2917C35.7172 12.2917 34.1931 11.8396 30.6668 14.2033C27.7063 13.401 24.5857 13.401 21.6252 14.2033C18.0989 11.8396 16.5747 12.2917 16.5747 12.2917C15.9113 13.8395 15.8697 15.5835 16.4585 17.1612C15.2057 18.4771 14.5113 20.227 14.521 22.0438C14.521 29.0446 18.7835 30.5817 22.8393 31.0854C22.4144 31.5245 22.0866 32.0482 21.8774 32.6224C21.6682 33.1966 21.5823 33.8083 21.6252 34.4179V39.4167M21.6252 35.5417C15.1668 37.4792 15.1668 32.3125 12.5835 31.6667L21.6252 35.5417Z" stroke="black" stroke-width="2" stroke-linecap="round" stroke-linejoin="round"/>
</svg>
