<svg width="73" height="73" viewBox="0 0 73 73" xmlns="http://www.w3.org/2000/svg">
<path d="M72 36.5C72 56.1061 56.1061 72 36.5 72C16.8939 72 1 56.1061 1 36.5C1 16.8939 16.8939 1 36.5 1C56.1061 1 72 16.8939 72 36.5Z" stroke="black" stroke-width="1.18"/>
<path d="M48.5339 36.5C48.5339 43.1461 43.1461 48.5339 36.5 48.5339C29.8539 48.5339 24.4661 43.1461 24.4661 36.5C24.4661 29.8539 29.8539 24.4661 36.5 24.4661C43.1461 24.4661 48.5339 29.8539 48.5339 36.5Z" stroke="black" stroke-width="1.18"/>
<path d="M60.5678 36.5C60.5678 49.7923 49.7923 60.5678 36.5 60.5678C23.2077 60.5678 12.4322 49.7923 12.4322 36.5C12.4322 23.2077 23.2077 12.4322 36.5 12.4322C49.7923 12.4322 60.5678 23.2077 60.5678 36.5Z" stroke="black" stroke-width="1.18"/>
</svg>
