<svg width="246" height="72" viewBox="0 0 246 72" fill="none" xmlns="http://www.w3.org/2000/svg">
<path d="M171.786 36.5407C179.866 30.4803 188.195 24.6586 195.647 17.8142C200.805 13.0758 205.88 5.68267 211.957 2.10821C217.623 -1.2248 206.255 13.9577 203.198 19.7775C199.894 26.0669 195.208 33.8804 195.798 41.3733C196.769 53.7165 216.58 42.8627 221.622 39.8631C228.75 35.6226 238.098 31.2504 243.671 24.9122C247.251 20.8411 233.063 21.5715 227.663 22.0428C192.31 25.1278 157.111 30.9378 122.251 37.4468C89.0112 43.6533 55.5316 50.1868 23.3335 60.7038C20.4227 61.6545 7.44391 66.2643 3.39889 68.4058C-0.297629 70.3627 3.84657 70.3047 5.0601 70.218C22.1619 68.9964 39.3836 62.7071 55.6516 57.8344C72.9809 52.6438 90.2845 47.358 107.602 42.1284C109.79 41.4677 115.693 39.339 114.398 41.2223C113.501 42.528 111.982 47.2398 111.982 46.0549" stroke="black" stroke-width="2" stroke-linecap="round"/>
</svg>
