<svg width="71" height="71" viewBox="0 0 71 71" xmlns="http://www.w3.org/2000/svg">
<path d="M35.5002 38.6324C35.5002 53.1978 33.872 54.8162 19.2183 54.8162C33.872 54.8162 35.5002 56.4346 35.5002 71C35.5002 56.4346 37.1284 54.8162 51.7822 54.8162C37.1284 54.8162 35.5002 53.1978 35.5002 38.6324Z" stroke="black" stroke-width="1.23478"/>
<path d="M54.718 18.7941C54.718 33.1246 53.0898 34.7169 38.436 34.7169C53.0898 34.7169 54.718 36.3092 54.718 50.6397C54.718 36.3092 56.3462 34.7169 70.9999 34.7169C56.3462 34.7169 54.718 33.1246 54.718 18.7941Z" stroke="black" stroke-width="1.23478"/>
<path d="M35.5002 0C35.5002 14.5654 33.872 16.1838 19.2183 16.1838C33.872 16.1838 35.5002 17.8022 35.5002 32.3676C35.5002 17.8022 37.1284 16.1838 51.7822 16.1838C37.1284 16.1838 35.5002 14.5654 35.5002 0Z" stroke="black" stroke-width="1.23478"/>
<path d="M16.5489 18.7941C16.5489 33.1246 14.894 34.7169 0 34.7169C14.894 34.7169 16.5489 36.3092 16.5489 50.6397C16.5489 36.3092 18.2038 34.7169 33.0977 34.7169C18.2038 34.7169 16.5489 33.1246 16.5489 18.7941Z" stroke="black" stroke-width="1.23478"/>
</svg>
