<svg width="50" height="50" viewBox="0 0 50 50" fill="none" xmlns="http://www.w3.org/2000/svg">
<path d="M39.7082 13.875C38.4713 14.7475 37.1017 15.4148 35.6523 15.8512C34.8744 14.9568 33.8406 14.3228 32.6906 14.0351C31.5406 13.7473 30.33 13.8197 29.2225 14.2424C28.115 14.6651 27.1641 15.4178 26.4983 16.3986C25.8325 17.3793 25.4839 18.5409 25.4998 19.7262V21.0179C23.2299 21.0768 20.9806 20.5733 18.9524 19.5525C16.9241 18.5316 15.1798 17.0249 13.8748 15.1667C13.8748 15.1667 8.70817 26.7917 20.3332 31.9583C17.673 33.764 14.5041 34.6694 11.2915 34.5417C22.9165 41 37.1248 34.5417 37.1248 19.6875C37.1236 19.3277 37.0891 18.9688 37.0215 18.6154C38.3398 17.3153 39.2701 15.6739 39.7082 13.875V13.875Z" stroke="black" stroke-width="2" stroke-linecap="round" stroke-linejoin="round"/>
</svg>
